:FULLY-SPECIFIED
:FORCE-ALL-JOINTS-BE-3DOF
:DEGREES
49
root 8.46777 15.7914 -29.7321 7.0822 -8.69626 -4.94029
lfemur -39.0417 7.44622 -15.1675
ltibia 34.3299 -0 0
lfoot -1.90631 7.44465 -0.0445801
ltoes -3.33109 0 0
rfemur 15.7586 5.80413 25.6987
rtibia 10.4782 -0 0
rfoot -4.9938 -1.35048 0.244078
rtoes -25.6132 0 0
lowerback -8.0742 0.789085 1.47541
upperback -1.26972 0.775511 3.78928
thorax 3.20894 0.38421 3.21122
lowerneck -21.3851 -4.56799 -12.3503
upperneck 16.5115 -5.52278 14.2291
head 9.51501 -1.83681 6.27799
lclavicle -2.00524e-14 3.18055e-15 0
lhumerus -41.2941 -8.12295 91.1607
lradius 23.7974 -0 0
lwrist 0.147629 0 0
lhand 3.8449 -18.3623 0.115567
lfingers 7.12502 -0 0
lthumb 29.2527 9.21101 0.0677781
rclavicle -2.00524e-14 3.18055e-15 0
rhumerus -45.433 18.8097 -93.0101
rradius 53.3572 -0 0
rwrist -25.944 0 0
rhand -30.8217 -32.6071 0.00222602
rfingers 7.12502 -0 0
rthumb -4.11102 -62.5471 0.00214975
50
root 8.49294 15.8088 -29.6023 6.99219 -8.66545 -4.72014
lfemur -38.3589 7.23726 -15.4938
ltibia 34.1249 -0 0
lfoot -2.30363 7.49858 -0.0494555
ltoes -3.26079 0 0
rfemur 14.5887 5.74612 25.4389
rtibia 11.9751 -0 0
rfoot -5.34874 -1.68075 0.270784
rtoes -25.1793 0 0
lowerback -7.98735 0.726225 1.31856
upperback -1.27726 0.709722 3.75311
thorax 3.15718 0.350494 3.25623
lowerneck -21.4138 -4.5509 -12.3303
upperneck 16.6072 -5.4965 14.1611
head 9.54677 -1.82907 6.25727
lclavicle -2.00524e-14 3.18055e-15 0
lhumerus -40.8758 -8.28028 91.0616
lradius 23.888 -0 0
lwrist 0.200313 0 0
lhand 3.43559 -18.498 0.128208
lfingers 7.12502 -0 0
lthumb 28.8604 9.12797 0.0751904
rclavicle -2.00524e-14 3.18055e-15 0
rhumerus -45.3806 18.663 -92.8886
rradius 52.9649 -0 0
rwrist -25.82 0 0
rhand -30.8179 -32.3305 0.00246932
rfingers 7.12502 -0 0
rthumb -4.10728 -62.2706 0.00238472
51
root 8.51811 15.8263 -29.4726 6.90232 -8.63431 -4.50006
lfemur -37.6753 7.03216 -15.8225
ltibia 33.9198 -0 0
lfoot -2.70095 7.55254 -0.0539567
ltoes -3.19049 0 0
rfemur 13.4192 5.68284 25.1804
rtibia 13.472 -0 0
rfoot -5.70382 -2.01119 0.295444
rtoes -24.7454 0 0
lowerback -7.90032 0.663603 1.16162
upperback -1.28476 0.643928 3.71695
thorax 3.10539 0.316818 3.30127
lowerneck -21.4424 -4.53379 -12.3103
upperneck 16.7029 -5.47011 14.0932
head 9.57853 -1.82132 6.23656
lclavicle -2.00524e-14 3.18055e-15 0
lhumerus -40.4572 -8.4369 90.9614
lradius 23.9786 -0 0
lwrist 0.252998 0 0
lhand 3.02626 -18.6338 0.139879
lfingers 7.12502 -0 0
lthumb 28.468 9.04488 0.0820339
rclavicle -2.00524e-14 3.18055e-15 0
rhumerus -45.3285 18.5161 -92.7673
rradius 52.5727 -0 0
rwrist -25.6961 0 0
rhand -30.814 -32.0539 0.00269393
rfingers 7.12502 -0 0
rthumb -4.10353 -61.994 0.00260163
52
root 8.54328 15.8437 -29.3429 6.81257 -8.60282 -4.28005
lfemur -36.9908 6.83098 -16.1534
ltibia 33.7148 -0 0
lfoot -3.09828 7.60654 -0.0580836
ltoes -3.1202 0 0
rfemur 12.2502 5.61433 24.9233
rtibia 14.9689 -0 0
rfoot -6.05905 -2.34177 0.318054
rtoes -24.3115 0 0
lowerback -7.81312 0.60122 1.00458
upperback -1.29222 0.57813 3.6808
thorax 3.05358 0.283182 3.34635
lowerneck -21.4711 -4.51668 -12.2904
upperneck 16.7985 -5.4436 14.0254
head 9.61028 -1.81355 6.21586
lclavicle -2.00524e-14 3.18055e-15 0
lhumerus -40.038 -8.59278 90.86
lradius 24.0692 -0 0
lwrist 0.305682 0 0
lhand 2.6169 -18.7696 0.15058
lfingers 7.12502 -0 0
lthumb 28.0757 8.96175 0.0883083
rclavicle -2.00524e-14 3.18055e-15 0
rhumerus -45.2769 18.3692 -92.6463
rradius 52.1804 -0 0
rwrist -25.5721 0 0
rhand -30.8101 -31.7773 0.00289984
rfingers 7.12502 -0 0
rthumb -4.09979 -61.7175 0.00280049
53
root 8.56845 15.8612 -29.2131 6.72296 -8.57099 -4.0601
lfemur -36.3054 6.63374 -16.4867
ltibia 33.5097 -0 0
lfoot -3.49561 7.66056 -0.061836
ltoes -3.0499 0 0
rfemur 11.0816 5.54061 24.6676
rtibia 16.4658 -0 0
rfoot -6.4144 -2.67249 0.338614
rtoes -23.8776 0 0
lowerback -7.72576 0.539076 0.847451
upperback -1.29964 0.512327 3.64465
thorax 3.00174 0.249588 3.39145
lowerneck -21.4997 -4.49956 -12.2704
upperneck 16.8941 -5.41698 13.9576
head 9.64203 -1.80578 6.19516
lclavicle -2.00524e-14 3.18055e-15 0
lhumerus -39.6184 -8.74792 90.7574
lradius 24.1599 -0 0
lwrist 0.358367 0 0
lhand 2.20751 -18.9056 0.16031
lfingers 7.12502 -0 0
lthumb 27.6833 8.87858 0.0940133
rclavicle -2.00524e-14 3.18055e-15 0
rhumerus -45.2256 18.2221 -92.5255
rradius 51.7881 -0 0
rwrist -25.4482 0 0
rhand -30.8062 -31.5007 0.00308705
rfingers 7.12502 -0 0
rthumb -4.09605 -61.441 0.00298128
54
root 8.59362 15.8786 -29.0834 6.63347 -8.53882 -3.84023
lfemur -35.6191 6.44047 -16.8221
ltibia 33.3047 -0 0
lfoot -3.89294 7.7146 -0.0652137
ltoes -2.97961 0 0
rfemur 9.91347 5.46172 24.4136
rtibia 17.9627 -0 0
rfoot -6.76986 -3.00333 0.357123
rtoes -23.4437 0 0
lowerback -7.63822 0.477171 0.690228
upperback -1.30702 0.446519 3.60852
thorax 2.94987 0.216034 3.43658
lowerneck -21.5283 -4.48243 -12.2504
upperneck 16.9897 -5.39025 13.8898
head 9.67377 -1.79799 6.17446
lclavicle -2.00524e-14 3.18055e-15 0
lhumerus -39.1984 -8.90232 90.6536
lradius 24.2505 -0 0
lwrist 0.411051 0 0
lhand 1.7981 -19.0415 0.169068
lfingers 7.12502 -0 0
lthumb 27.291 8.79537 0.0991486
rclavicle -2.00524e-14 3.18055e-15 0
rhumerus -45.1746 18.075 -92.405
rradius 51.3958 -0 0
rwrist -25.3242 0 0
rhand -30.8024 -31.2241 0.00325555
rfingers 7.12502 -0 0
rthumb -4.09231 -61.1645 0.00314401
55
root 8.6188 15.8961 -28.9537 6.54412 -8.50631 -3.62042
lfemur -34.932 6.25121 -17.1597
ltibia 33.0996 -0 0
lfoot -4.29028 7.76867 -0.0682165
ltoes -2.90931 0 0
rfemur 8.74588 5.37769 24.1612
rtibia 19.4596 -0 0
rfoot -7.12542 -3.33428 0.373578
rtoes -23.0098 0 0
lowerback -7.55052 0.415508 0.532912
upperback -1.31436 0.380706 3.57239
thorax 2.89798 0.182521 3.48174
lowerneck -21.5569 -4.46529 -12.2305
upperneck 17.0853 -5.36341 13.8221
head 9.70551 -1.7902 6.15377
lclavicle -2.00524e-14 3.18055e-15 0
lhumerus -38.7779 -9.05596 90.5486
lradius 24.3411 -0 0
lwrist 0.463736 0 0
lhand 1.38868 -19.1776 0.176855
lfingers 7.12502 -0 0
lthumb 26.8986 8.71213 0.103714
rclavicle -2.00524e-14 3.18055e-15 0
rhumerus -45.1241 17.9277 -92.2846
rradius 51.0035 -0 0
rwrist -25.2002 0 0
rhand -30.7985 -30.9475 0.00340533
rfingers 7.12502 -0 0
rthumb -4.08856 -60.888 0.00328866
56
root 8.64397 15.9135 -28.8239 6.45491 -8.47347 -3.40068
lfemur -34.244 6.06599 -17.4995
ltibia 32.8945 -0 0
lfoot -4.68762 7.82276 -0.0708442
ltoes -2.83901 0 0
rfemur 7.57885 5.28857 23.9107
rtibia 20.9565 -0 0
rfoot -7.48108 -3.66533 0.387979
rtoes -22.5759 0 0
lowerback -7.46265 0.354085 0.375504
upperback -1.32165 0.314889 3.53627
thorax 2.84606 0.14905 3.52694
lowerneck -21.5855 -4.44814 -12.2106
upperneck 17.1808 -5.33645 13.7544
head 9.73725 -1.78239 6.13308
lclavicle -2.00524e-14 3.18055e-15 0
lhumerus -38.3569 -9.20884 90.4424
lradius 24.4317 -0 0
lwrist 0.51642 0 0
lhand 0.979231 -19.3137 0.183669
lfingers 7.12502 -0 0
lthumb 26.5062 8.62885 0.107709
rclavicle -2.00524e-14 3.18055e-15 0
rhumerus -45.0739 17.7803 -92.1646
rradius 50.6112 -0 0
rwrist -25.0763 0 0
rhand -30.7946 -30.6709 0.0035364
rfingers 7.12502 -0 0
rthumb -4.08482 -60.6115 0.00341524
57
root 8.66914 15.931 -28.6942 6.36583 -8.44028 -3.18102
lfemur -33.5551 5.88485 -17.8413
ltibia 32.6895 -0 0
lfoot -5.08496 7.87687 -0.0730968
ltoes -2.76872 0 0
rfemur 6.41239 5.19438 23.662
rtibia 22.4534 -0 0
rfoot -7.83681 -3.99645 0.400325
rtoes -22.142 0 0
lowerback -7.37461 0.292904 0.218002
upperback -1.32891 0.249067 3.50016
thorax 2.79411 0.115619 3.57216
lowerneck -21.6141 -4.43098 -12.1906
upperneck 17.2762 -5.30939 13.6868
head 9.76899 -1.77457 6.1124
lclavicle -2.00524e-14 3.18055e-15 0
lhumerus -37.9355 -9.36094 90.335
lradius 24.5223 -0 0
lwrist 0.569105 0 0
lhand 0.56977 -19.4498 0.189511
lfingers 7.12502 -0 0
lthumb 26.1138 8.54556 0.111134
rclavicle -2.00524e-14 3.18055e-15 0
rhumerus -45.024 17.6329 -92.0447
rradius 50.219 -0 0
rwrist -24.9523 0 0
rhand -30.7907 -30.3943 0.00364875
rfingers 7.12502 -0 0
rthumb -4.08107 -60.3349 0.00352374
58
root 8.69431 15.9484 -28.5645 6.27688 -8.40676 -2.96142
lfemur -32.8654 5.70781 -18.1852
ltibia 32.4844 -0 0
lfoot -5.48231 7.93099 -0.0749742
ltoes -2.69842 0 0
rfemur 5.24653 5.09517 23.4154
rtibia 23.9503 -0 0
rfoot -8.19261 -4.32765 0.410614
rtoes -21.7081 0 0
lowerback -7.2864 0.231966 0.0604069
upperback -1.33612 0.183241 3.46406
thorax 2.74214 0.082229 3.61741
lowerneck -21.6427 -4.4138 -12.1707
upperneck 17.3717 -5.28221 13.6192
head 9.80072 -1.76674 6.09172
lclavicle -2.00524e-14 3.18055e-15 0
lhumerus -37.5136 -9.51225 90.2265
lradius 24.6129 -0 0
lwrist 0.621789 0 0
lhand 0.160297 -19.586 0.194379
lfingers 7.12502 -0 0
lthumb 25.7214 8.46224 0.113988
rclavicle -2.00524e-14 3.18055e-15 0
rhumerus -44.9746 17.4853 -91.9251
rradius 49.8267 -0 0
rwrist -24.8284 0 0
rhand -30.7869 -30.1178 0.00374239
rfingers 7.12502 -0 0
rthumb -4.07732 -60.0584 0.00361417
59
root 8.71948 15.9659 -28.4347 6.18808 -8.3729 -2.7419
lfemur -32.1748 5.5349 -18.5311
ltibia 32.2794 -0 0
lfoot -5.87965 7.98512 -0.0764762
ltoes -2.62813 0 0
rfemur 4.08129 4.99098 23.1709
rtibia 25.4472 -0 0
rfoot -8.54846 -4.65891 0.418847
rtoes -21.2742 0 0
lowerback -7.19803 0.17127 -0.0972809
upperback -1.34329 0.11741 3.42797
thorax 2.69014 0.0488802 3.6627
lowerneck -21.6713 -4.39662 -12.1508
upperneck 17.4671 -5.25491 13.5517
head 9.83246 -1.7589 6.07104
lclavicle -2.00524e-14 3.18055e-15 0
lhumerus -37.0912 -9.66278 90.1168
lradius 24.7035 -0 0
lwrist 0.674473 0 0
lhand -0.249187 -19.7222 0.198274
lfingers 7.12502 -0 0
lthumb 25.329 8.3789 0.116272
rclavicle -2.00524e-14 3.18055e-15 0
rhumerus -44.9255 17.3377 -91.8057
rradius 49.4344 -0 0
rwrist -24.7044 0 0
rhand -30.783 -29.8412 0.00381729
rfingers 7.12502 -0 0
rthumb -4.07358 -59.7819 0.00368651
60
root 8.74465 15.9833 -28.305 6.09941 -8.3387 -2.52245
lfemur -31.4834 5.36615 -18.879
ltibia 32.0743 -0 0
lfoot -6.277 8.03926 -0.0776027
ltoes -2.55783 0 0
rfemur 2.91669 4.88187 22.9287
rtibia 26.9441 -0 0
rfoot -8.90435 -4.99021 0.425022
rtoes -20.8403 0 0
lowerback -7.10949 0.110818 -0.255062
upperback -1.35042 0.0515744 3.39189
thorax 2.63811 0.0155726 3.70801
lowerneck -21.6999 -4.37943 -12.1309
upperneck 17.5624 -5.22751 13.4843
head 9.86418 -1.75104 6.05037
lclavicle -2.00524e-14 3.18055e-15 0
lhumerus -36.6683 -9.8125 90.0059
lradius 24.7942 -0 0
lwrist 0.727158 0 0
lhand -0.658679 -19.8584 0.201196
lfingers 7.12502 -0 0
lthumb 24.9366 8.29555 0.117985
rclavicle -2.00524e-14 3.18055e-15 0
rhumerus -44.8767 17.1899 -91.6866
rradius 49.0421 -0 0
rwrist -24.5804 0 0
rhand -30.7791 -29.5646 0.00387347
rfingers 7.12502 -0 0
rthumb -4.06983 -59.5054 0.00374076
61
root 8.76982 16.0008 -28.1753 6.01089 -8.30417 -2.30307
lfemur -30.7911 5.2016 -19.2289
ltibia 31.8693 -0 0
lfoot -6.67435 8.0934 -0.0783538
ltoes -2.48753 0 0
rfemur 1.75276 4.76787 22.6887
rtibia 28.441 -0 0
rfoot -9.26027 -5.32155 0.429139
rtoes -20.4064 0 0
lowerback -7.02078 0.0506097 -0.412936
upperback -1.3575 -0.0142654 3.35581
thorax 2.58606 -0.0176938 3.75336
lowerneck -21.7285 -4.36223 -12.111
upperneck 17.6578 -5.19999 13.4168
head 9.89591 -1.74318 6.02971
lclavicle -2.00524e-14 3.18055e-15 0
lhumerus -36.245 -9.96141 89.8939
lradius 24.8848 -0 0
lwrist 0.779842 0 0
lhand -1.06818 -19.9947 0.203143
lfingers 7.12502 -0 0
lthumb 24.5442 8.21219 0.119126
rclavicle -2.00524e-14 3.18055e-15 0
rhumerus -44.8283 17.0421 -91.5676
rradius 48.6498 -0 0
rwrist -24.4565 0 0
rhand -30.7752 -29.288 0.00391093
rfingers 7.12502 -0 0
rthumb -4.06608 -59.2289 0.00377694
